<svg width="0" height="0" fill="none" style="visibility: hidden; position: absolute;" aria-hidden="true">
    <symbol id="burger" viewBox="0 0 40 40" fill="none" xmlns="http://www.w3.org/2000/svg">
        <path d="M20 40C31.0457 40 40 31.0457 40 20C40 8.9543 31.0457 0 20 0C8.9543 0 0 8.9543 0 20C0 31.0457 8.9543 40 20 40Z" fill="#F5F6F7"/>
        <path d="M29 24.7998V26.5996H11V24.7998H29ZM29 21.2002H11V19.4004H29V21.2002ZM29 15.7998H11V14H29V15.7998Z" fill="black"/>
    </symbol>
    <symbol id="logo"
     viewBox="0 0 55 36" fill="none" xmlns="http://www.w3.org/2000/svg">
        <path fill-rule="evenodd" clip-rule="evenodd" d="M36.6502 30.4842C35.35 32.6512 32.2094 32.6511 30.9092 30.4842L12.7815 0.271275L48.8656 0.271275C51.4676 0.271275 53.0748 3.10989 51.7361 5.34111L36.6502 30.4842Z" fill="#FFD723"/>
        <path fill-rule="evenodd" clip-rule="evenodd" d="M18.1277 30.4842C19.4279 32.6512 22.5685 32.6511 23.8687 30.4842L41.9964 0.271275L5.91239 0.271275C3.31037 0.271275 1.70317 3.10989 3.0419 5.34111L18.1277 30.4842Z" fill="white"/>
        <path fill-rule="evenodd" clip-rule="evenodd" d="M12.7816 0.27124H41.9965L27.39 24.617L12.7816 0.27124Z" fill="#F6F6F6"/>
    </symbol>
</svg>